<svg xmlns="http://www.w3.org/2000/svg" xmlns:xlink="http://www.w3.org/1999/xlink" id="Capa_1" x="0" y="0" enable-background="new 0 0 455.431 455.431" version="1.1" viewBox="0 0 455.431 455.431" xml:space="preserve"><path fill="#5CA4DA" d="M405.493,412.764c-69.689,56.889-287.289,56.889-355.556,0c-69.689-56.889-62.578-300.089,0-364.089	s292.978-64,355.556,0S475.182,355.876,405.493,412.764z"/><path fill="#6DAFE0" d="M229.138,313.209c-62.578,49.778-132.267,75.378-197.689,76.8	c-48.356-82.489-38.4-283.022,18.489-341.333c51.2-52.622,211.911-62.578,304.356-29.867	C377.049,112.676,330.116,232.142,229.138,313.209z"/><path fill="#FFF" d="M172.249,89.92h110.933v274.489h-58.311V142.542h-52.622L172.249,89.92L172.249,89.92z"/></svg>